<?xml version="1.0" encoding="UTF-8" standalone="no"?>
<!-- Created with Inkscape (http://www.inkscape.org/) -->

<svg
   width="400"
   height="400"
   viewBox="0 0 105.83333 105.83333"
   version="1.1"
   id="svg5"
   xml:space="preserve"
   inkscape:version="1.2.2 (732a01da63, 2022-12-09)"
   sodipodi:docname="icon_foreground.svg"
   xmlns:inkscape="http://www.inkscape.org/namespaces/inkscape"
   xmlns:sodipodi="http://sodipodi.sourceforge.net/DTD/sodipodi-0.dtd"
   xmlns="http://www.w3.org/2000/svg"
   xmlns:svg="http://www.w3.org/2000/svg"><sodipodi:namedview
     id="namedview7"
     pagecolor="#ffffff"
     bordercolor="#000000"
     borderopacity="0.25"
     inkscape:showpageshadow="2"
     inkscape:pageopacity="0.0"
     inkscape:pagecheckerboard="0"
     inkscape:deskcolor="#d1d1d1"
     inkscape:document-units="mm"
     showgrid="false"
     inkscape:zoom="0.73851712"
     inkscape:cx="356.79606"
     inkscape:cy="236.96133"
     inkscape:window-width="1920"
     inkscape:window-height="1009"
     inkscape:window-x="-8"
     inkscape:window-y="-8"
     inkscape:window-maximized="1"
     inkscape:current-layer="g4052" /><defs
     id="defs2" /><g
     inkscape:label="Ebene 1"
     inkscape:groupmode="layer"
     id="layer1"><g
       id="g4052"
       transform="translate(0,-5.0562037)"><g
         aria-label="NRG"
         id="text2416"
         style="font-size:32.8794px;-inkscape-font-specification:sans-serif;fill:#a0ce4d;stroke-width:1.95255"
         transform="translate(0,5.0562009)"><path
           d="M 37.303769,64.853111 H 31.363643 L 21.217267,48.445521 v 16.40759 H 15.56612 V 40.948119 h 7.368967 l 8.717536,13.694398 V 40.948119 h 5.651146 z"
           style="font-weight:bold;-inkscape-font-specification:'sans-serif Bold'"
           id="path6251" /><path
           d="m 56.809857,48.268923 q 0,-0.899046 -0.369251,-1.541222 -0.369251,-0.642176 -1.268298,-1.011427 -0.626121,-0.25687 -1.460949,-0.305034 -0.834829,-0.06422 -1.942582,-0.06422 h -2.231561 v 6.437812 h 1.894419 q 1.477004,0 2.472376,-0.14449 0.995373,-0.144489 1.669657,-0.65823 0.642176,-0.497686 0.931155,-1.091699 0.305034,-0.610067 0.305034,-1.621493 z m 9.616581,16.584188 h -7.52951 l -6.518084,-8.765699 h -2.841628 v 8.765699 H 43.404438 V 40.948119 h 10.339029 q 2.11918,0 3.644348,0.240816 1.525167,0.240816 2.857682,1.043536 1.348569,0.802719 2.135234,2.087071 0.80272,1.268297 0.80272,3.194824 0,2.648975 -1.236188,4.318632 -1.220134,1.669657 -3.499858,2.77741 z"
           style="font-weight:bold;-inkscape-font-specification:'sans-serif Bold';fill:#a0ce4d;fill-opacity:1"
           id="path6253" /><path
           d="m 90.267214,63.488488 q -1.60544,0.626121 -4.254415,1.252243 -2.648975,0.610066 -5.281895,0.610066 -6.10067,0 -9.552365,-3.307205 -3.451694,-3.323259 -3.451694,-9.167058 0,-5.570875 3.483803,-8.974407 3.483804,-3.419585 9.712908,-3.419585 2.359996,0 4.495231,0.433468 2.135234,0.417414 4.7521,1.685712 v 5.602983 h -0.690339 q -0.449523,-0.337142 -1.31646,-0.947209 -0.866937,-0.626122 -1.669657,-1.05959 -0.931155,-0.513741 -2.183398,-0.882992 -1.236188,-0.369251 -2.63292,-0.369251 -1.637548,0 -2.970063,0.481632 -1.332515,0.481632 -2.392105,1.477004 -1.011426,0.963264 -1.605439,2.456322 -0.577958,1.477005 -0.577958,3.419586 0,3.965435 2.103125,6.068561 2.103126,2.103126 6.213051,2.103126 0.353196,0 0.770611,-0.01606 0.433468,-0.01605 0.786665,-0.04816 v -4.687883 h -4.768155 v -4.511285 h 11.029369 z"
           style="font-weight:bold;-inkscape-font-specification:'sans-serif Bold'"
           id="path6255" /></g><g
         aria-label="EXCHANGE"
         id="text2416-0"
         style="font-size:12.4226px;-inkscape-font-specification:sans-serif;fill:#ffffff;stroke-width:0.737719" /></g></g></svg>
